<?xml version="1.0" encoding="UTF-8"?>
<svg version="1.1" xmlns="http://www.w3.org/2000/svg" width="500" height="500">
<path d="M0 0 C165 0 330 0 500 0 C500 165 500 330 500 500 C335 500 170 500 0 500 C0 335 0 170 0 0 Z " fill="#E6E6DD" transform="translate(0,0)"/>
<path d="M0 0 C3.59482199 2.83801736 5.11121406 5.84889127 5.70703125 10.42529297 C5.89271436 13.36847113 5.99592705 16.30176951 6.0625 19.25 C6.09666016 20.27222656 6.13082031 21.29445313 6.16601562 22.34765625 C6.24808588 24.85666114 6.31736876 27.36533465 6.375 29.875 C9.76309041 29.30521182 11.22198469 28.34395266 13.43359375 25.7421875 C13.98466797 25.10023438 14.53574219 24.45828125 15.10351562 23.796875 C15.94946289 22.78367187 15.94946289 22.78367187 16.8125 21.75 C17.37259766 21.09773438 17.93269531 20.44546875 18.50976562 19.7734375 C22.06260777 15.59459866 25.1609203 11.37471157 28.375 6.875 C22.435 6.875 16.495 6.875 10.375 6.875 C10.375 4.235 10.375 1.595 10.375 -1.125 C20.275 -1.125 30.175 -1.125 40.375 -1.125 C40.375 9.18932482 40.375 9.18932482 35.3125 14.375 C34.30325151 15.48176515 33.29544279 16.5898449 32.2890625 17.69921875 C31.7930957 18.23337402 31.29712891 18.7675293 30.78613281 19.31787109 C27.7602244 22.65684062 25.10548422 26.2950318 22.375 29.875 C28.315 30.205 34.255 30.535 40.375 30.875 C40.375 33.515 40.375 36.155 40.375 38.875 C34.73334639 38.94910727 29.09197553 39.00358167 23.44995117 39.03979492 C21.53030462 39.0548898 19.6106926 39.07536773 17.69116211 39.10131836 C14.93334436 39.13767109 12.1759822 39.15471912 9.41796875 39.16796875 C8.55850143 39.18345261 7.69903412 39.19893646 6.81352234 39.21488953 C6.01291885 39.21511612 5.21231537 39.21534271 4.38745117 39.21557617 C3.6835173 39.22223801 2.97958344 39.22889984 2.25431824 39.23576355 C-0.20229372 38.76417974 -1.10663209 37.8242358 -2.625 35.875 C-2.625 35.215 -2.625 34.555 -2.625 33.875 C-3.285 33.875 -3.945 33.875 -4.625 33.875 C-4.8725 34.49375 -5.12 35.1125 -5.375 35.75 C-6.93052932 38.39439985 -7.70121471 38.95169938 -10.625 39.875 C-15.98552948 40.30043885 -19.27921645 40.35162684 -23.625 36.875 C-27.01257043 33.07531638 -27.19272658 30.23681752 -27.046875 25.28515625 C-26.39584451 21.5658432 -24.60840404 20.04474839 -21.625 17.875 C-18.34053791 15.98787485 -15.0490151 15.12856883 -11.375 14.25 C-9.75851563 13.85941406 -9.75851563 13.85941406 -8.109375 13.4609375 C-7.28953125 13.26757812 -6.4696875 13.07421875 -5.625 12.875 C-5.295 11.225 -4.965 9.575 -4.625 7.875 C-11.50151335 7.3857619 -15.12766577 7.718479 -20.625 11.875 C-23.625 10.875 -23.625 10.875 -25.625 7.875 C-25.41248781 5.38281156 -24.94773375 4.21949108 -23.234375 2.390625 C-16.09343404 -2.47001549 -8.1272815 -2.52225978 0 0 Z " fill="#FEFEFE" transform="translate(130.625,238.125)"/>
<path d="M0 0 C3.00977467 1.85615096 4.56946063 4.00647126 5.83984375 7.23046875 C6.06689453 9.88769531 6.06689453 9.88769531 6.03515625 12.87109375 C6.02871094 13.94101563 6.02226562 15.0109375 6.015625 16.11328125 C5.99886719 17.22445312 5.98210937 18.335625 5.96484375 19.48046875 C5.95582031 20.60710937 5.94679687 21.73375 5.9375 22.89453125 C5.91395033 25.6733924 5.88106055 28.45182265 5.83984375 31.23046875 C7.48984375 31.23046875 9.13984375 31.23046875 10.83984375 31.23046875 C10.88226098 33.5634165 10.88077312 35.89749442 10.83984375 38.23046875 C9.27999166 39.79032084 7.75078277 39.47499219 5.58984375 39.54296875 C1.94862896 39.52554667 0.96014232 39.30903108 -2.22265625 37.23046875 C-2.86203125 36.57046875 -3.50140625 35.91046875 -4.16015625 35.23046875 C-4.77890625 35.86984375 -5.39765625 36.50921875 -6.03515625 37.16796875 C-8.93006348 39.97773165 -10.53989455 40.40115255 -14.47265625 40.48046875 C-18.52949406 40.41535097 -21.02359159 39.9980258 -24.16015625 37.23046875 C-27.03370581 32.87060046 -27.90044104 29.4124623 -27.16015625 24.23046875 C-24.10141162 19.0996713 -21.1915996 17.42866745 -15.51953125 15.8203125 C-14.35164062 15.52833984 -14.35164062 15.52833984 -13.16015625 15.23046875 C-12.3815625 15.02550781 -11.60296875 14.82054687 -10.80078125 14.609375 C-8.92616826 14.12742663 -7.04382743 13.67570012 -5.16015625 13.23046875 C-5.49015625 11.58046875 -5.82015625 9.93046875 -6.16015625 8.23046875 C-12.45307353 7.79647445 -14.92565585 8.45675916 -20.16015625 12.23046875 C-23.56440469 11.09571927 -24.37669334 10.26235571 -26.16015625 7.23046875 C-24.7855516 3.10665481 -22.7826317 2.23574423 -19.03515625 0.25390625 C-13.10814593 -1.85598057 -5.97688646 -2.12919825 0 0 Z " fill="#FEFEFD" transform="translate(199.16015625,237.76953125)"/>
<path d="M0 0 C3.71413731 1.23804577 5.3285742 2.09042018 7.6340332 5.21362305 C9.25642072 8.52306161 9.34517833 10.72245726 9.29296875 14.39453125 C9.28330078 15.59658203 9.27363281 16.79863281 9.26367188 18.03710938 C9.23853516 19.28298828 9.21339844 20.52886719 9.1875 21.8125 C9.16719727 23.71032227 9.16719727 23.71032227 9.14648438 25.64648438 C9.11118318 28.76475643 9.06186819 31.88216042 9 35 C10.65 35 12.3 35 14 35 C14 36.65 14 38.3 14 40 C7.9453125 40.1953125 7.9453125 40.1953125 6 40 C5.34 39.34 4.68 38.68 4 38 C4 37.01 4 36.02 4 35 C3.071875 35.804375 2.14375 36.60875 1.1875 37.4375 C-2.88626916 40.96809994 -6.54736041 41.29590324 -11.78125 41.2109375 C-14.93117421 40.91147287 -16.62985959 40.09130036 -19 38 C-21.61525329 33.94184834 -22.70124748 30.80855413 -22 26 C-19.48303331 21.06287304 -17.1571 18.9339125 -12 17 C-8.84845597 16.15605483 -5.69214833 15.37606346 -2.51171875 14.6484375 C-0.07749454 14.24679587 -0.07749454 14.24679587 1 13 C1.04080783 11.00041636 1.04254356 8.99954746 1 7 C-2.44388193 5.27805903 -6.22688824 5.62203716 -10 6 C-13.76398568 7.7119187 -13.76398568 7.7119187 -16 11 C-16.66 11 -17.32 11 -18 11 C-18.66 9.35 -19.32 7.7 -20 6 C-13.11617892 0.16371691 -9.19739929 -0.66125093 0 0 Z " fill="#FDFDFC" transform="translate(328,237)"/>
<path d="M0 0 C0.95003906 -0.01417969 1.90007812 -0.02835938 2.87890625 -0.04296875 C5.4375 0.1875 5.4375 0.1875 8.4375 2.1875 C7.6875 7.9375 7.6875 7.9375 5.4375 10.1875 C3.33826041 10.08253802 1.37543067 9.6756338 -0.6875 9.28125 C-1.30625 9.2503125 -1.925 9.219375 -2.5625 9.1875 C-5.07097518 11.32617505 -5.07097518 11.32617505 -5.5625 16.1875 C-1.6025 16.1875 2.3575 16.1875 6.4375 16.1875 C6.4375 18.8275 6.4375 21.4675 6.4375 24.1875 C2.8075 24.1875 -0.8225 24.1875 -4.5625 24.1875 C-4.5625 34.7475 -4.5625 45.3075 -4.5625 56.1875 C-7.8625 56.1875 -11.1625 56.1875 -14.5625 56.1875 C-14.5625 45.9575 -14.5625 35.7275 -14.5625 25.1875 C-16.5425 25.1875 -18.5225 25.1875 -20.5625 25.1875 C-20.5625 22.2175 -20.5625 19.2475 -20.5625 16.1875 C-18.9125 16.1875 -17.2625 16.1875 -15.5625 16.1875 C-15.68625 15.011875 -15.81 13.83625 -15.9375 12.625 C-15.95378283 8.04952355 -14.25320474 5.8471449 -11.265625 2.53515625 C-7.87702213 -0.14619235 -4.19043753 0.02850638 0 0 Z " fill="#FEFEFD" transform="translate(97.5625,220.8125)"/>
<path d="M0 0 C1.98 0 3.96 0 6 0 C6.33 6.6 6.66 13.2 7 20 C9.97 17.525 9.97 17.525 13 15 C17.82030153 13.98379219 22.46033732 14.35847388 27 16.25 C30.38644983 19.2131436 31.8879958 20.85442582 32.34057617 25.48339844 C32.34010423 26.85881543 32.32333368 28.23429315 32.29296875 29.609375 C32.28872391 30.33618469 32.28447906 31.06299438 32.28010559 31.81182861 C32.2633613 34.12493504 32.22571885 36.43715855 32.1875 38.75 C32.17244758 40.32160197 32.15876015 41.89321764 32.14648438 43.46484375 C32.11347195 47.31023415 32.06172056 51.15496756 32 55 C30.35 55 28.7 55 27 55 C26.98018066 54.14245117 26.96036133 53.28490234 26.93994141 52.40136719 C26.86170479 49.21052358 26.77500657 46.0200526 26.68261719 42.82958984 C26.64440662 41.45044757 26.60953998 40.07120833 26.578125 38.69189453 C26.53230376 36.70583033 26.47333737 34.72008321 26.4140625 32.734375 C26.36693115 30.94338379 26.36693115 30.94338379 26.31884766 29.11621094 C26.01634655 26.15976065 25.70620087 24.41120106 24 22 C20.28564844 20.76188281 16.85286065 20.30903864 13 21 C10.30894802 23.17574416 8.54467072 24.91065856 7 28 C6.84588894 30.0307477 6.75017547 32.06606421 6.68359375 34.1015625 C6.64169922 35.31328125 6.59980469 36.525 6.55664062 37.7734375 C6.51732422 39.04445313 6.47800781 40.31546875 6.4375 41.625 C6.37272461 43.543125 6.37272461 43.543125 6.30664062 45.5 C6.20030114 48.66655348 6.09827167 51.83318753 6 55 C4.02 55 2.04 55 0 55 C0 36.85 0 18.7 0 0 Z " fill="#FEFEFE" transform="translate(372,222)"/>
<path d="M0 0 C1.98 0 3.96 0 6 0 C6.02505615 0.8878418 6.0501123 1.77568359 6.07592773 2.69042969 C6.17121797 5.99296037 6.27044207 9.29532459 6.37231445 12.59765625 C6.41555318 14.02534388 6.45723585 15.45307954 6.49731445 16.88085938 C6.55528602 18.93634496 6.61890175 20.99159128 6.68359375 23.046875 C6.72025146 24.28276367 6.75690918 25.51865234 6.79467773 26.79199219 C6.95979819 29.37187658 7.2464387 31.54355106 8 34 C9.93742341 34.02703381 11.87495479 34.04641125 13.8125 34.0625 C15.43091797 34.07990234 15.43091797 34.07990234 17.08203125 34.09765625 C20.06512169 34.13624766 20.06512169 34.13624766 23 33 C24.82704908 28.82136442 25.28472963 25.03446307 25.4140625 20.5078125 C25.45273438 19.30898438 25.49140625 18.11015625 25.53125 16.875 C25.5621875 15.6375 25.593125 14.4 25.625 13.125 C25.66367188 11.86429688 25.70234375 10.60359375 25.7421875 9.3046875 C25.83616989 6.20326863 25.92183411 3.10185114 26 0 C27.98 0 29.96 0 32 0 C32 13.2 32 26.4 32 40 C30.02 40 28.04 40 26 40 C25.67 38.68 25.34 37.36 25 36 C23.824375 36.9590625 23.824375 36.9590625 22.625 37.9375 C18.66718874 41.04720885 16.24566971 41.34459865 11.3203125 41.28125 C7.71960988 40.8448012 5.68495512 39.36531761 3 37 C-0.15847729 32.8229009 -0.35479093 29.68417454 -0.29296875 24.51171875 C-0.28872391 23.80852005 -0.28447906 23.10532135 -0.28010559 22.3808136 C-0.2634006 20.14930869 -0.22576614 17.91872887 -0.1875 15.6875 C-0.17244248 14.1686329 -0.15875594 12.64975154 -0.14648438 11.13085938 C-0.11352473 7.42027566 -0.06180016 3.71022822 0 0 Z " fill="#FDFDFD" transform="translate(226,237)"/>
<path d="M0 0 C0.95003906 -0.00515625 1.90007812 -0.0103125 2.87890625 -0.015625 C5.4375 0.25 5.4375 0.25 8.4375 2.25 C7.7775 3.9 7.1175 5.55 6.4375 7.25 C5.4475 6.92 4.4575 6.59 3.4375 6.25 C-1.22791296 5.82619631 -1.22791296 5.82619631 -5.5 7.375 C-7.05551257 9.76083594 -7.05551257 9.76083594 -6.5625 15.25 C-2.2725 15.58 2.0175 15.91 6.4375 16.25 C6.4375 17.9 6.4375 19.55 6.4375 21.25 C2.1475 21.25 -2.1425 21.25 -6.5625 21.25 C-6.5625 32.8 -6.5625 44.35 -6.5625 56.25 C-8.5425 56.25 -10.5225 56.25 -12.5625 56.25 C-12.5625 44.7 -12.5625 33.15 -12.5625 21.25 C-14.8725 21.25 -17.1825 21.25 -19.5625 21.25 C-19.5625 19.6 -19.5625 17.95 -19.5625 16.25 C-17.5825 15.92 -15.6025 15.59 -13.5625 15.25 C-13.645 14.21875 -13.7275 13.1875 -13.8125 12.125 C-13.5193741 7.58154849 -12.45789517 5.70838867 -9.5625 2.25 C-6.36163234 0.19279747 -3.76698424 -0.02050059 0 0 Z " fill="#FDFDFD" transform="translate(299.5625,220.75)"/>
<path d="M0 0 C0 2.97 0 5.94 0 9 C4.29 9 8.58 9 13 9 C13 10.65 13 12.3 13 14 C8.71 14 4.42 14 0 14 C0.14026303 18.45857367 0.28694494 22.91677242 0.4375 27.375 C0.47681641 28.64601563 0.51613281 29.91703125 0.55664062 31.2265625 C0.61948242 33.04414063 0.61948242 33.04414063 0.68359375 34.8984375 C0.72025146 36.01911621 0.75690918 37.13979492 0.79467773 38.29443359 C0.82596013 40.96712771 0.82596013 40.96712771 2 43 C5.3 43 8.6 43 12 43 C12.66 44.32 13.32 45.64 14 47 C10.27683361 49.79237479 7.46154145 50.48182161 2.9296875 50.28515625 C0.0003721 49.85228171 -1.75643055 48.91363277 -4 47 C-6.01116493 43.05171958 -6.2354532 39.78212556 -6.1953125 35.38671875 C-6.18886719 34.13955078 -6.18242187 32.89238281 -6.17578125 31.60742188 C-6.15902344 30.31384766 -6.14226562 29.02027344 -6.125 27.6875 C-6.11597656 26.37458984 -6.10695313 25.06167969 -6.09765625 23.70898438 C-6.07411797 20.47247087 -6.0412352 17.23632851 -6 14 C-8.31 14 -10.62 14 -13 14 C-13 12.35 -13 10.7 -13 9 C-10.69 9 -8.38 9 -6 9 C-6 6.36 -6 3.72 -6 1 C-4 0 -4 0 0 0 Z " fill="#FDFDFC" transform="translate(354,228)"/>
<path d="M0 0 C1.98 0 3.96 0 6 0 C6.33 16.5 6.66 33 7 50 C8.98 50.66 10.96 51.32 13 52 C12.505 54.475 12.505 54.475 12 57 C7.97429543 57.39467692 5.72360047 57.47515844 2.29223633 55.22192383 C-1.16437863 50.36337153 -0.62335506 45.95511854 -0.48828125 40.13671875 C-0.48120651 38.98959915 -0.47413177 37.84247955 -0.46684265 36.66059875 C-0.43888813 33.00223162 -0.37614286 29.34540337 -0.3125 25.6875 C-0.28741872 23.20510025 -0.26460526 20.72267648 -0.24414062 18.24023438 C-0.18905778 12.15963254 -0.10541898 6.07992622 0 0 Z " fill="#FDFDFC" transform="translate(268,221)"/>
<path d="M0 0 C0.38434943 4.80436782 0.47968712 8.09024857 -1.8125 12.4375 C-3.95638892 14.94891273 -5.57189408 16.77829807 -8.9375 17.30078125 C-14.33707865 17.33146067 -14.33707865 17.33146067 -17 16 C-18.57902411 12.84195178 -18.87749599 9.42707096 -18 6 C-15.03660412 3.03660412 -11.88958688 2.24463381 -7.875 1.3125 C-6.29332031 0.93544922 -6.29332031 0.93544922 -4.6796875 0.55078125 C-2 0 -2 0 0 0 Z " fill="#E6E6DE" transform="translate(331,256)"/>
<path d="M0 0 C3.63 0 7.26 0 11 0 C11 3.63 11 7.26 11 11 C7.37 11 3.74 11 0 11 C0 7.37 0 3.74 0 0 Z " fill="#F13024" transform="translate(410,268)"/>
<path d="M0 0 C0.48192771 7.22891566 0.48192771 7.22891566 -1.5625 10.5 C-4.87594552 12.5390434 -7.18115682 12.42431591 -11 12 C-13 10 -13 10 -13.3125 7.5625 C-13 5 -13 5 -12 3.3125 C-8.51993855 1.02870967 -4.15890048 0 0 0 Z " fill="#E7E7DE" transform="translate(195,258)"/>
<path d="M0 0 C0.32469403 4.65394781 -0.20209482 7.23358918 -3 11 C-5.73905345 12.36952673 -7.97087332 12.12621361 -11 12 C-11.66 11.67 -12.32 11.34 -13 11 C-13.125 7.625 -13.125 7.625 -13 4 C-10.84184495 1.84184495 -9.94361015 1.55101467 -7.0625 0.875 C-6.37285156 0.70742188 -5.68320313 0.53984375 -4.97265625 0.3671875 C-3 0 -3 0 0 0 Z " fill="#E7E7DE" transform="translate(127,258)"/>
</svg>
