<?xml version="1.0" encoding="UTF-8"?>
<svg version="1.1" xmlns="http://www.w3.org/2000/svg" width="500" height="500">
<path d="M0 0 C0.21381839 3.13600307 0.19750037 5.48649905 -0.9375 8.4375 C-3.53652408 10.40645764 -4.51252239 10.09445512 -7.6875 9.75 C-9.12836665 9.52019671 -10.56732696 9.27632268 -12 9 C-12.33 10.65 -12.66 12.3 -13 14 C-9.7 14 -6.4 14 -3 14 C-2.67 14.99 -2.34 15.98 -2 17 C-1.41734375 16.7834375 -0.8346875 16.566875 -0.234375 16.34375 C7.6240056 13.67486602 15.49568446 12.47175009 23.5 15.1875 C26.51637529 17.37437208 28.07183634 18.75938881 30 22 C30.493703 25.94849513 30.37614764 29.84127524 30.25 33.8125 C30.23195312 34.88693359 30.21390625 35.96136719 30.1953125 37.06835938 C30.14829392 39.71315465 30.0825916 42.35611589 30 45 C38.66799951 41.86147794 43.92106614 32.98052276 48 25 C43.05 24.67 38.1 24.34 33 24 C33 21.03 33 18.06 33 15 C37.58170918 12.70914541 43.90726479 13.724761 48.9375 13.6875 C50.23880859 13.65849609 51.54011719 13.62949219 52.88085938 13.59960938 C54.12544922 13.59123047 55.37003906 13.58285156 56.65234375 13.57421875 C57.79695068 13.55963623 58.94155762 13.54505371 60.12084961 13.5300293 C63 14 63 14 64.89672852 16.02661133 C65.26080811 16.67782959 65.6248877 17.32904785 66 18 C70.22577089 16.6242416 70.22577089 16.6242416 74.33984375 14.953125 C80.09877712 12.88971862 87.45236931 12.81784409 93.0625 15.4375 C97.41313547 19.2327352 98.70028471 23.80851262 99.23608398 29.51391602 C99.29301427 32.03717357 99.2638241 34.53989076 99.1875 37.0625 C99.17396484 37.92810547 99.16042969 38.79371094 99.14648438 39.68554688 C99.1115933 41.79064174 99.05780665 43.89540974 99 46 C100.32 46.33 101.64 46.66 103 47 C103.625 50.375 103.625 50.375 104 54 C101.6058839 56.3941161 100.96213689 56.29598923 97.6875 56.3125 C93.68719369 56.24152682 91.22830157 55.49933025 88 53 C86.5459375 54.0209375 86.5459375 54.0209375 85.0625 55.0625 C81.2530056 57.22506147 78.49459257 57.32501937 74.22265625 56.62890625 C70.72046766 55.63795306 68.03202367 53.9998454 65 52 C64.67 53.32 64.34 54.64 64 56 C58.55569418 56.07437576 53.11168671 56.12870866 47.66699219 56.16479492 C45.81635381 56.17984471 43.96575089 56.20028933 42.11523438 56.22631836 C39.44912955 56.2628698 36.78349792 56.27976454 34.1171875 56.29296875 C33.29507782 56.30845261 32.47296814 56.32393646 31.62594604 56.33988953 C26.64772446 56.34133506 23.36678233 55.66244746 19 53 C18.484375 53.474375 17.96875 53.94875 17.4375 54.4375 C13.16030052 57.17929454 9.30715792 57.20283485 4.375 56.4375 C0.38381929 54.73755266 -2.16991736 52.93427457 -4 49 C-4.99580574 44.01287534 -4.57119209 40.23377492 -2.4375 35.625 C1.98167836 31.0766059 9.98325654 30.2104691 16 29 C16.66 29 17.32 29 18 29 C17.505 27.02 17.505 27.02 17 25 C10.73920552 24.56822107 7.90924297 25.07260562 3 29 C0.53199953 27.84826645 -1.04783565 26.95216435 -3 25 C-5.43252661 24.53837573 -5.43252661 24.53837573 -8.125 24.375 C-9.03507812 24.30023438 -9.94515625 24.22546875 -10.8828125 24.1484375 C-11.93082031 24.07496094 -11.93082031 24.07496094 -13 24 C-12.99214478 25.29417847 -12.99214478 25.29417847 -12.98413086 26.61450195 C-12.96708004 29.81811273 -12.95454547 33.02170036 -12.94506836 36.2253418 C-12.94004223 37.61141725 -12.93322034 38.99748741 -12.92456055 40.38354492 C-12.91241982 42.37676715 -12.90728979 44.37002819 -12.90234375 46.36328125 C-12.89448853 48.16212769 -12.89448853 48.16212769 -12.88647461 49.99731445 C-13 53 -13 53 -14 56 C-15.64574566 56.02688151 -17.29161413 56.04634123 -18.9375 56.0625 C-19.85402344 56.07410156 -20.77054688 56.08570313 -21.71484375 56.09765625 C-24 56 -24 56 -25 55 C-25.08783542 52.78144736 -25.10694609 50.56011504 -25.09765625 48.33984375 C-25.0962413 47.67537735 -25.09482635 47.01091095 -25.09336853 46.3263092 C-25.08775518 44.19666101 -25.07520054 42.06711661 -25.0625 39.9375 C-25.05748671 38.49674631 -25.05292351 37.05599097 -25.04882812 35.61523438 C-25.03778145 32.07678898 -25.02050792 28.53840461 -25 25 C-25.804375 24.855625 -26.60875 24.71125 -27.4375 24.5625 C-30 24 -30 24 -31 23 C-31.04092937 20.66702567 -31.04241723 18.33294775 -31 16 C-29.35 15.34 -27.7 14.68 -26 14 C-25.97421875 13.40832031 -25.9484375 12.81664062 -25.921875 12.20703125 C-25.54707556 6.98539355 -25.03298398 3.69690198 -21 0 C-14.89576418 -3.7702633 -6.32809238 -2.66445995 0 0 Z M65 24 C60.40072761 28.29931985 56.40834213 32.84363904 52.5625 37.8125 C52.11342285 38.38766357 51.6643457 38.96282715 51.20166016 39.55541992 C48.76874251 42.44987879 48.76874251 42.44987879 48 46 C52.95 46 57.9 46 63 46 C63.7425 44.411875 64.485 42.82375 65.25 41.1875 C67.00817579 37.42695734 68.36662601 35.09043435 72 33 C74.39119736 32.19121266 76.81208539 31.46712522 79.25 30.8125 C81.14492187 30.29623047 81.14492187 30.29623047 83.078125 29.76953125 C84.04234375 29.51558594 85.0065625 29.26164062 86 29 C86.59070014 27.05396726 86.59070014 27.05396726 87 25 C85.79872662 23.58376964 85.79872662 23.58376964 82.3125 23.6875 C77.750081 23.71216172 75.51027022 25.19178383 72 28 C69.50638429 26.79618552 67.31856917 25.54571278 65 24 Z M14.8359375 37.55859375 C13.61777344 37.99365234 13.61777344 37.99365234 12.375 38.4375 C11.55773437 38.72496094 10.74046875 39.01242187 9.8984375 39.30859375 C9.27195313 39.53675781 8.64546875 39.76492188 8 40 C7.32041397 42.39719432 7.32041397 42.39719432 7 45 C8.87773264 47.30746414 8.87773264 47.30746414 11.9375 47.25 C15.17282787 47.23517754 15.17282787 47.23517754 18 45 C18.73606499 41.43230448 18.73606499 41.43230448 19 38 C17.02767749 36.74026972 17.02767749 36.74026972 14.8359375 37.55859375 Z M77 40 C75.76999802 42.47570505 75.76999802 42.47570505 76 45 C76.33 45.66 76.66 46.32 77 47 C81.63981875 47.37054871 81.63981875 47.37054871 85.9375 45.9375 C87.55479605 42.98831309 87.18630138 40.29132441 87 37 C83.42727517 37 80.10221738 38.27201049 77 40 Z " fill="#FEFEFC" transform="translate(107,222)"/>
<path d="M0 0 C4.875 0.875 4.875 0.875 6 2 C6.08631874 3.34267413 6.10706473 4.68974322 6.09765625 6.03515625 C6.09443359 6.84404297 6.09121094 7.65292969 6.08789062 8.48632812 C6.07532227 9.7615332 6.07532227 9.7615332 6.0625 11.0625 C6.05798828 11.91650391 6.05347656 12.77050781 6.04882812 13.65039062 C6.03700373 15.76695663 6.01906769 17.88348685 6 20 C7.04929687 19.34902344 8.09859375 18.69804687 9.1796875 18.02734375 C13.82461162 15.37994739 17.74935195 15.26009544 23 16 C26.76292473 17.60124457 28.84097382 19.54555811 31 23 C31.92323124 25.76969372 32.15912484 27.61957803 32.24609375 30.4921875 C32.27896484 31.36230469 32.31183594 32.23242188 32.34570312 33.12890625 C32.40663594 34.95170484 32.46395964 36.77462784 32.51757812 38.59765625 C32.69847588 43.21908189 33.09165199 46.73195195 35 51 C34.625 54.8125 34.625 54.8125 34 58 C31.36 58.33 28.72 58.66 26 59 C23.64650605 55.46975908 23.79658725 54.13869618 23.91015625 49.9765625 C23.93013672 48.790625 23.95011719 47.6046875 23.97070312 46.3828125 C24.03171272 43.88531328 24.09679172 41.38791004 24.16601562 38.890625 C24.18470703 37.70210938 24.20339844 36.51359375 24.22265625 35.2890625 C24.25109619 34.20318848 24.27953613 33.11731445 24.30883789 31.99853516 C23.95624922 28.57521973 23.06036356 26.73192399 21 24 C17.95624443 23.09752367 15.09653166 23.37845386 12 24 C9.49839182 25.87620613 8.38054348 27.23891303 7 30 C6.85776706 32.01930446 6.7737611 34.0428464 6.71875 36.06640625 C6.68136719 37.27361328 6.64398438 38.48082031 6.60546875 39.72460938 C6.53504898 42.28710643 6.46473681 44.84960644 6.39453125 47.41210938 C6.35714844 48.61802734 6.31976563 49.82394531 6.28125 51.06640625 C6.25095703 52.17959229 6.22066406 53.29277832 6.18945312 54.43969727 C6 57 6 57 5 58 C2.17723279 58.12545632 -0.28687702 58.22285093 -3 57.375 C-5.15188247 56.79365462 -5.15188247 56.79365462 -7.6875 58 C-10.65362775 58.89543479 -12.47004258 59.18980914 -15.5 59.0625 C-16.2115625 59.03285156 -16.923125 59.00320313 -17.65625 58.97265625 C-21.68360086 57.30130564 -24.00407582 54.87075178 -26 51 C-26.85562711 46.34999576 -26.88489757 41.78116828 -26.875 37.0625 C-26.895625 35.80630859 -26.91625 34.55011719 -26.9375 33.25585938 C-26.98443464 30.16990692 -27.00445574 27.08623511 -27 24 C-28.98 23.34 -30.96 22.68 -33 22 C-32.67 20.35 -32.34 18.7 -32 17 C-30.35 16.67 -28.7 16.34 -27 16 C-26.814375 14.329375 -26.814375 14.329375 -26.625 12.625 C-26 9 -26 9 -24 7 C-21.375 6.875 -21.375 6.875 -19 7 C-17.5216774 9.95664519 -17.93967217 12.74229737 -18 16 C-16.96939453 15.96519531 -16.96939453 15.96519531 -15.91796875 15.9296875 C-14.56638672 15.90261719 -14.56638672 15.90261719 -13.1875 15.875 C-12.29417969 15.85179687 -11.40085937 15.82859375 -10.48046875 15.8046875 C-8 16 -8 16 -5 18 C-5.33 19.65 -5.66 21.3 -6 23 C-9.96 23 -13.92 23 -18 23 C-17.67 32.24 -17.34 41.48 -17 51 C-12.05 50.505 -12.05 50.505 -7 50 C-3.875 50.9375 -3.875 50.9375 -2 52 C-2.00444122 51.40753479 -2.00888245 50.81506958 -2.01345825 50.20465088 C-2.05769201 44.0404298 -2.08786664 37.87625378 -2.10986328 31.71191406 C-2.1199232 29.41111418 -2.13357262 27.1103271 -2.15087891 24.80957031 C-2.17512735 21.5032231 -2.18648323 18.19704488 -2.1953125 14.890625 C-2.21079636 13.3466806 -2.21079636 13.3466806 -2.22659302 11.77154541 C-2.22674408 10.81085144 -2.22689514 9.85015747 -2.22705078 8.86035156 C-2.231492 8.01651917 -2.23593323 7.17268677 -2.24050903 6.30328369 C-1.97855059 3.79458533 -1.25924304 2.16671042 0 0 Z " fill="#FEFEFC" transform="translate(373,220)"/>
<path d="M0 0 C2.0625 1.1875 2.0625 1.1875 3.0625 4.1875 C2.0725 5.6725 2.0725 5.6725 1.0625 7.1875 C-1.9765625 7.48046875 -1.9765625 7.48046875 -5.5625 7.375 C-6.75101562 7.34792969 -7.93953125 7.32085937 -9.1640625 7.29296875 C-10.07929688 7.25816406 -10.99453125 7.22335938 -11.9375 7.1875 C-11.9375 10.1575 -11.9375 13.1275 -11.9375 16.1875 C-11.25042969 16.09210938 -10.56335938 15.99671875 -9.85546875 15.8984375 C-8.95441406 15.78757813 -8.05335938 15.67671875 -7.125 15.5625 C-5.78501953 15.38847656 -5.78501953 15.38847656 -4.41796875 15.2109375 C-1.9375 15.1875 -1.9375 15.1875 1.0625 17.1875 C1.0625 17.8475 1.0625 18.5075 1.0625 19.1875 C1.74054688 18.89875 2.41859375 18.61 3.1171875 18.3125 C10.82300717 15.23871044 17.53289554 13.45801466 25.5 16.5 C29.51128991 19.14158116 29.51128991 19.14158116 31.0625 21.1875 C31.49487305 24.19018555 31.49487305 24.19018555 31.57421875 27.82421875 C31.60966797 29.12294922 31.64511719 30.42167969 31.68164062 31.75976562 C31.7047405 33.13150517 31.7275229 34.5032501 31.75 35.875 C31.78317542 37.25849607 31.81766531 38.64196129 31.85351562 40.02539062 C31.93613241 43.41267883 32.00524058 46.79970357 32.0625 50.1875 C33.7125 50.5175 35.3625 50.8475 37.0625 51.1875 C37.0625 52.8375 37.0625 54.4875 37.0625 56.1875 C34.375 57.375 34.375 57.375 31.0625 58.1875 C28.1875 56.9375 28.1875 56.9375 26.0625 55.1875 C26.0625 54.5275 26.0625 53.8675 26.0625 53.1875 C25.093125 53.826875 24.12375 54.46625 23.125 55.125 C18.88283144 57.51121982 14.94209885 58.54678553 10.0625 58.1875 C6.29567223 57.03294149 3.06445303 55.72644747 0.8671875 52.3515625 C-0.62509559 48.33833516 -0.57292898 44.38953036 0.0625 40.1875 C3.57650888 34.79935305 9.23680867 33.24984761 15.0625 31.1875 C16.60496513 30.60628126 18.14671645 30.02316196 19.6875 29.4375 C20.80125 29.025 21.915 28.6125 23.0625 28.1875 C22.56493908 25.43108584 22.56493908 25.43108584 21.0625 23.1875 C16.45232178 22.60646514 13.10521344 22.40546492 9.3125 25.25 C8.57 25.889375 7.8275 26.52875 7.0625 27.1875 C4.25 26.9375 4.25 26.9375 2.0625 26.1875 C1.7325 25.1975 1.4025 24.2075 1.0625 23.1875 C-3.2275 22.8575 -7.5175 22.5275 -11.9375 22.1875 C-11.93226318 23.21222412 -11.92702637 24.23694824 -11.92163086 25.29272461 C-11.90358031 29.08145276 -11.8920678 32.87017709 -11.88256836 36.65893555 C-11.87752826 38.30119464 -11.87069622 39.94344923 -11.86206055 41.58569336 C-11.84998074 43.94125479 -11.84426861 46.29675709 -11.83984375 48.65234375 C-11.83468246 49.39089096 -11.82952118 50.12943817 -11.82420349 50.8903656 C-11.8240075 52.65648088 -11.87555281 54.42247146 -11.9375 56.1875 C-12.4325 56.6825 -12.4325 56.6825 -12.9375 57.1875 C-15.2475 56.8575 -17.5575 56.5275 -19.9375 56.1875 C-20.2675 45.2975 -20.5975 34.4075 -20.9375 23.1875 C-22.9175 22.5275 -24.8975 21.8675 -26.9375 21.1875 C-26.75 18.8125 -26.75 18.8125 -25.9375 16.1875 C-25.133125 15.94 -24.32875 15.6925 -23.5 15.4375 C-22.654375 15.025 -21.80875 14.6125 -20.9375 14.1875 C-20.25187388 11.96033541 -19.91563987 9.74571296 -19.52734375 7.44921875 C-18.62863611 4.00318085 -16.68542508 2.33222202 -13.9375 0.1875 C-9.21157454 -1.38780849 -4.74791622 -1.31325342 0 0 Z M9.0625 40.1875 C6.68522768 43.09188989 6.68522768 43.09188989 7.3125 46.8125 C7.56 47.92625 7.8075 49.04 8.0625 50.1875 C11.27944364 51.79597182 14.58387222 51.80059149 18.0625 51.1875 C20.75355198 49.01175584 22.51782928 47.27684144 24.0625 44.1875 C24.10272391 41.8545134 24.10570247 39.52043334 24.0625 37.1875 C18.72062813 36.77658678 13.86757004 37.85223596 9.0625 40.1875 Z " fill="#FDFEFC" transform="translate(305.9375,220.8125)"/>
<path d="M0 0 C0.78375 0.04125 1.5675 0.0825 2.375 0.125 C3.81823041 3.01146083 3.52138244 5.55553078 3.55078125 8.77734375 C3.57397526 10.12436466 3.59809243 11.47136993 3.62304688 12.81835938 C3.65819504 14.94273408 3.68752543 17.06653168 3.70092773 19.19116211 C3.71639339 21.24143239 3.75658088 23.29001806 3.80078125 25.33984375 C3.81536377 26.56823975 3.82994629 27.79663574 3.8449707 29.06225586 C4.08588365 32.20206546 4.08588365 32.20206546 6.28369141 34.0378418 C9.73875968 35.83394488 12.72757364 35.15714405 16.375 34.125 C18.50518952 32.54453681 19.19885265 31.4772947 20.375 29.125 C20.51751079 27.03269912 20.601323 24.93627293 20.65625 22.83984375 C20.69363281 21.58751953 20.73101562 20.33519531 20.76953125 19.04492188 C20.83994713 16.38607044 20.91025933 13.72721627 20.98046875 11.06835938 C21.01785156 9.81732422 21.05523437 8.56628906 21.09375 7.27734375 C21.12404297 6.12226318 21.15433594 4.96718262 21.18554688 3.77709961 C21.375 1.125 21.375 1.125 22.375 0.125 C25.375 0 25.375 0 28.375 0.125 C30.27123202 2.02123202 29.50397626 4.78870359 29.51394653 7.3112793 C29.5119223 8.17793213 29.50989807 9.04458496 29.5078125 9.9375 C29.50876923 10.82155518 29.50972595 11.70561035 29.51071167 12.61645508 C29.51139351 14.48942129 29.50953893 16.36238986 29.50537109 18.23535156 C29.50002289 21.11268388 29.50531593 23.98986008 29.51171875 26.8671875 C29.51105797 28.68229201 29.50977681 30.49739643 29.5078125 32.3125 C29.50983673 33.17915283 29.51186096 34.04580566 29.51394653 34.9387207 C29.48995009 41.01004991 29.48995009 41.01004991 28.375 42.125 C24.65275401 42.41886153 23.59713757 42.27309171 20.375 40.125 C18.45574115 40.8860854 16.53753872 41.65014517 14.62890625 42.4375 C10.75757176 43.61835766 7.23358756 43.21483008 3.375 42.125 C-0.10069372 39.98042302 -2.32648971 38.02053088 -3.625 34.125 C-4.70545294 27.32682165 -4.8083536 20.62472636 -4.8125 13.75 C-4.83086914 12.11224609 -4.83086914 12.11224609 -4.84960938 10.44140625 C-4.85154297 9.40113281 -4.85347656 8.36085937 -4.85546875 7.2890625 C-4.85957764 6.34498535 -4.86368652 5.4009082 -4.86791992 4.42822266 C-4.50062511 0.94575104 -3.45140479 0.16435261 0 0 Z " fill="#FEFEFC" transform="translate(229.625,235.875)"/>
<path d="M0 0 C2.625 0.375 2.625 0.375 5 1 C5.95987611 3.87962834 6.12153814 5.66627441 6.11352539 8.6550293 C6.11344986 9.59577805 6.11337433 10.53652679 6.11329651 11.50578308 C6.10813522 12.51836685 6.10297394 13.53095062 6.09765625 14.57421875 C6.0962413 15.61318802 6.09482635 16.65215729 6.09336853 17.72261047 C6.08776656 21.04426948 6.07521372 24.36586133 6.0625 27.6875 C6.05748525 29.93815007 6.0529223 32.18880119 6.04882812 34.43945312 C6.03779649 39.95965837 6.02105643 45.47982439 6 51 C8.31 51.66 10.62 52.32 13 53 C13 54.32 13 55.64 13 57 C10 59 10 59 6.5625 58.8125 C3.12707061 58.02898102 1.45749502 57.45749502 -1 55 C-1.97755409 52.06733772 -2.1319608 50.15691992 -2.14526367 47.10131836 C-2.15164352 46.10696274 -2.15802338 45.11260712 -2.16459656 44.08811951 C-2.16626579 42.48022301 -2.16626579 42.48022301 -2.16796875 40.83984375 C-2.17296135 39.18862267 -2.17296135 39.18862267 -2.17805481 37.50404358 C-2.183119 35.17644672 -2.18546329 32.8488426 -2.18530273 30.52124023 C-2.18749339 26.94828458 -2.20566609 23.37563555 -2.22460938 19.80273438 C-2.22754248 17.54427189 -2.22952783 15.28580794 -2.23046875 13.02734375 C-2.23765427 11.95338852 -2.24483978 10.87943329 -2.25224304 9.77293396 C-2.24916641 8.7817305 -2.24608978 7.79052704 -2.24291992 6.76928711 C-2.24434494 5.89453232 -2.24576996 5.01977753 -2.24723816 4.11851501 C-2 2 -2 2 0 0 Z " fill="#FEFEFC" transform="translate(269,220)"/>
<path d="M0 0 C3.96 0 7.92 0 12 0 C12.09765625 9.27734375 12.09765625 9.27734375 12 12 C11 13 11 13 8.49609375 13.09765625 C6.98208984 13.08025391 6.98208984 13.08025391 5.4375 13.0625 C4.42558594 13.05347656 3.41367187 13.04445313 2.37109375 13.03515625 C1.58863281 13.02355469 0.80617188 13.01195312 0 13 C-1.17904475 8.75169592 -2.0326419 4.0652838 0 0 Z " fill="#DD4035" transform="translate(410,267)"/>
<path d="M0 0 C1.32 0 2.64 0 4 0 C4 3.3 4 6.6 4 10 C1.03 10 -1.94 10 -5 10 C-4.34 9.67 -3.68 9.34 -3 9 C-2.16666667 7.08333333 -2.16666667 7.08333333 -2 5 C-2.66 4.34 -3.32 3.68 -4 3 C-2.68 2.67 -1.36 2.34 0 2 C0 1.34 0 0.68 0 0 Z " fill="#F02E20" transform="translate(417,269)"/>
<path d="M0 0 C0.99 0.99 1.98 1.98 3 3 C2.6875 6.6875 2.6875 6.6875 2 10 C1.34 10 0.68 10 0 10 C0 6.7 0 3.4 0 0 Z " fill="#FAD3C9" transform="translate(405,268)"/>
</svg>
